<svg width="213" height="46" viewBox="0 0 213 46" fill="none" xmlns="http://www.w3.org/2000/svg">
<g clip-path="url(#clip0_2_544)">
<path d="M57.2671 30.6825L70.366 15.0422H57.6861V10.6163H76.7544V14.4208L63.6556 30.0611H76.7544V34.487H57.2671V30.6842V30.6825Z" fill="black"/>
<path d="M79.7216 22.6161V22.5504C79.7216 15.8293 84.9809 10.2212 92.2073 10.2212C99.4337 10.2212 104.628 15.6978 104.628 22.4846V22.5504C104.628 29.2714 99.369 34.8795 92.1426 34.8795C84.9161 34.8795 79.7216 29.403 79.7216 22.6161ZM99.4354 22.6161V22.5504C99.4354 18.3529 96.3698 14.8444 92.1443 14.8444C87.9188 14.8444 84.9178 18.2872 84.9178 22.4846V22.5504C84.9178 26.7478 87.9188 30.2563 92.209 30.2563C96.4992 30.2563 99.4354 26.8135 99.4354 22.6161Z" fill="black"/>
<path d="M108.502 22.6161V22.5504C108.502 15.8293 113.761 10.2212 120.988 10.2212C128.214 10.2212 133.409 15.6978 133.409 22.4846V22.5504C133.409 29.2714 128.149 34.8795 120.923 34.8795C113.697 34.8795 108.502 29.403 108.502 22.6161ZM128.216 22.6161V22.5504C128.216 18.3529 125.15 14.8444 120.925 14.8444C116.699 14.8444 113.698 18.2872 113.698 22.4846V22.5504C113.698 26.7478 116.699 30.2563 120.989 30.2563C125.28 30.2563 128.216 26.8135 128.216 22.6161Z" fill="black"/>
<path d="M138.346 10.6143H143.67L150.026 20.9425L156.415 10.6143H161.739V34.485H156.803V18.5816L150.028 29.0085H149.898L143.188 18.6802V34.485H138.348V10.6143H138.346Z" fill="black"/>
<path d="M183.546 34.485V18.5487L172.092 34.485H167.737V10.6143H172.673V26.059L183.773 10.6143H188.516V34.485H183.548H183.546Z" fill="black"/>
<path d="M194.515 10.6143H204.032C209.613 10.6143 213.001 13.9913 213.001 18.8118V18.8776C213.001 24.387 208.774 27.2066 203.547 27.2066H199.449V34.4867H194.513V10.6143H194.515ZM203.71 22.7132C206.42 22.7132 208.002 21.107 208.002 18.9745V18.9087C208.002 16.4491 206.324 15.17 203.615 15.17H199.452V22.7115H203.712L203.71 22.7132Z" fill="black"/>
<path d="M23.0257 28.3279C23.0257 28.3279 17.8515 23.104 23.7955 17.0996C23.7955 17.0996 25.0899 15.6785 27.9903 15.2873C30.8925 14.8962 32.9192 12.9074 32.7455 10.8095C32.7455 10.8095 29.2489 14.6833 26.0334 11.5555C22.8162 8.42954 27.3448 5.28451 30.8925 6.31439C30.8925 6.31439 30.6421 4.86391 31.9246 4.13347C32.3061 3.91538 32.7455 3.82537 33.1832 3.84095L36.6559 3.96038C37.1089 3.97596 37.5569 3.86172 37.9537 3.63843C38.7031 3.2161 40.0486 2.62067 40.9972 3.13301C40.9972 3.13301 39.6994 -2.7226 27.7485 1.57002C26.3672 2.06678 25.0268 2.67433 23.7256 3.35803C21.8624 4.33771 17.9043 6.0738 14.3192 5.37106C14.3192 5.37106 16.6048 6.80597 19.3588 6.65884C19.3588 6.65884 15.5608 8.83457 9.16208 9.19114C9.16208 9.19114 13.672 10.1327 16.0666 9.74156C16.0666 9.74156 10.5944 13.5253 6.13731 14.8754C6.13731 14.8754 10.2453 14.0584 11.119 13.5789C11.119 13.5789 4.87868 18.4653 1.46899 19.5488C1.46899 19.5488 5.40155 19.9036 10.8908 17.1152C10.8908 17.1152 9.50953 19.4432 9.50953 21.2901C9.50953 21.2901 10.8039 19.6907 11.7304 19.5315C11.7304 19.5315 8.79421 23.9193 12.1153 29.7472C12.1153 29.7472 12.1204 27.6459 13.1287 27.073C13.1287 27.073 13.3382 33.7352 20.9955 35.5734C20.9955 35.5734 18.2943 33.2557 19.0556 30.4032C19.8169 27.5507 23.024 28.3244 23.024 28.3244L23.0257 28.3279Z" fill="#BE0A7C"/>
<path d="M40.7853 4.02431C40.7853 4.02431 47.218 6.68988 48.0577 13.9908C48.8973 21.2917 43.0232 24.9162 43.0232 24.9162C43.0232 24.9162 44.3704 22.055 44.2001 18.6642C44.183 18.3163 44.0536 17.9805 43.8202 17.7261C43.4915 17.3678 42.8869 16.9852 41.8174 17.0285C39.1434 17.0822 37.1763 14.15 36.2583 12.7913C36.2583 12.7913 37.9103 11.2456 38.2782 8.39481C38.2782 8.39481 42.1154 8.04863 40.787 4.02431H40.7853Z" fill="black"/>
<path d="M0.00170314 27.227C0.00170314 27.227 4.00409 25.9842 6.5571 23.4069C6.5571 23.4069 6.76658 24.4559 5.38533 25.2192C5.38533 25.2192 8.0252 25.2365 9.1084 24.0993C9.1084 24.0993 6.60819 27.9903 2.57004 28.3988L5.03449 26.2318C5.03449 26.2318 1.66056 27.7238 0 27.227H0.00170314Z" fill="#31481E"/>
<path d="M1.30432 30.9C1.30432 30.9 7.204 28.3157 9.10981 25.1967L9.9137 32.9286C9.9137 32.9286 11.3988 32.4664 12.5876 30.2284C12.5876 30.2284 13.7849 36.1809 18.0326 35.968C18.0326 35.968 17.9542 38.7028 19.9997 41.0845C19.9997 41.0845 14.7728 40.8007 12.465 34.4396C12.465 34.4396 9.24777 38.5609 3.75854 39.0594C3.75854 39.0594 9.00252 33.6226 8.33829 28.719C8.33829 28.719 3.951 30.8428 1.30261 30.9H1.30432Z" fill="#E8ABCC"/>
<path d="M23.8986 28.7537C23.8986 28.7537 30.4472 32.141 36.6773 24.6497C36.6773 24.6497 37.0094 31.1527 35.8206 32.2189C35.8206 32.2189 35.3131 30.7442 34.2997 30.7269C34.2997 30.7269 36.1885 33.7819 34.4224 38.5973C34.4224 38.5973 34.0732 36.6067 33.2336 36.6431C33.2336 36.6431 33.6525 43.7501 32.6749 45.1002C32.6749 45.1002 32.4654 39.3086 26.0667 36.8214C19.668 34.3341 21.0851 31.2427 21.0851 31.2427C21.0851 31.2427 21.487 29.6433 23.9003 28.7554L23.8986 28.7537Z" fill="#528530"/>
<path d="M43.1635 18.1485C43.1635 18.1485 40.2971 21.5065 37.2025 22.6783C34.1079 23.8501 33.8984 22.4481 33.7587 21.4874C33.6191 20.5285 33.4096 16.904 34.6852 15.393C35.3682 14.5846 36.0171 14.5915 36.4718 14.7716C36.7937 14.8996 37.0594 15.142 37.2433 15.4414C37.7219 16.2238 39.5647 18.7336 43.1635 18.1468V18.1485Z" fill="black"/>
<path d="M34.7199 10.8285C34.7199 10.8285 34.8765 14.1501 32.8668 16.2652C30.8571 18.3787 30.1742 25.0772 35.35 24.3849C35.35 24.3849 25.7869 31.0505 22.866 25.6519C22.4044 24.7985 22.2307 23.8171 22.292 22.8444C22.6173 17.6534 27.737 16.8157 27.737 16.8157C27.737 16.8157 34.0744 15.4483 34.7216 10.8285H34.7199Z" fill="#A8C82A"/>
<path d="M40.3616 5.63779C40.2083 5.5599 40.0363 5.51663 39.854 5.51663C39.2239 5.51663 38.7129 6.03589 38.7129 6.67632V6.68671C38.3382 6.49631 38.0811 6.10513 38.0811 5.6499C38.0811 5.00947 38.592 4.49021 39.2222 4.49021C39.8523 4.49021 40.3565 5.00255 40.3633 5.63779H40.3616Z" fill="black"/>
<path d="M30.5953 9.65672C30.5953 10.5914 29.7846 11.3495 28.7848 11.3495C27.7851 11.3495 26.9761 10.5914 26.9761 9.65672C26.9761 9.00071 27.3763 8.43125 27.9605 8.15084C27.3916 8.57837 27.1617 9.32612 27.4495 9.9527C27.7817 10.6762 28.6792 10.9653 29.4541 10.5983C30.1933 10.247 30.5527 9.42478 30.2955 8.72377C30.4845 8.99033 30.5953 9.31227 30.5953 9.65672Z" fill="black"/>
<path d="M29.2953 9.74151C28.8985 9.92845 28.4369 9.78132 28.2666 9.40918C28.1014 9.04742 28.27 8.60778 28.6481 8.41046C28.5442 8.55931 28.5187 8.7601 28.6004 8.93838C28.7213 9.20147 29.0296 9.31571 29.2885 9.19109C29.544 9.07166 29.6564 8.76702 29.544 8.50739C29.6104 8.56624 29.6666 8.64066 29.7057 8.72721C29.8761 9.09762 29.6921 9.55111 29.2953 9.73978V9.74151Z" fill="black"/>
<path d="M18.9681 36.0564C18.9681 36.0564 30.001 36.3887 31.8983 44.8268C31.9188 44.9169 31.9375 45.0069 31.9563 45.0986C26.3972 39.4663 21.2997 40.5152 20.7155 40.9773C20.7155 40.9773 18.3737 37.8323 18.9681 36.0564Z" fill="#31481E"/>
</g>
<defs>
<clipPath id="clip0_2_544">
<rect width="213" height="46" fill="white"/>
</clipPath>
</defs>
</svg>
