<svg width="60" height="60" viewBox="0 0 60 60" fill="none" xmlns="http://www.w3.org/2000/svg">
<g clip-path="url(#clip0_58_1539)">
<path fill-rule="evenodd" clip-rule="evenodd" d="M19.8495 7.72428C19.5841 7.84475 19.2834 8.0626 19.1813 8.20838C19.0791 8.35416 17.4049 12.0513 15.4607 16.4243L11.9258 24.375H6.65446C2.03352 24.375 1.33356 24.3984 0.982112 24.5652C-0.2057 25.1289 -0.34363 27.0272 0.746799 27.8051C1.08032 28.043 1.2868 28.0717 3.04321 28.125L4.97317 28.1836L6.46391 35.918C9.00922 49.1244 8.87867 48.5027 9.2818 49.3359C9.7168 50.235 10.7921 51.3555 11.6689 51.8233C12.9982 52.5327 12.1104 52.5 30.0586 52.5C48.0085 52.5 47.1202 52.5327 48.4482 51.8228C49.3311 51.3508 50.3367 50.2998 50.7376 49.4299C51.0174 48.8229 51.4296 46.8654 53.0519 38.4375L55.0258 28.1836L56.9562 28.125C59.152 28.0583 59.3701 27.9791 59.8545 27.0714C60.1043 26.6035 60.2357 25.4597 60.0248 25.5901C59.9741 25.6215 59.8645 25.4934 59.7813 25.3055C59.6981 25.1176 59.4628 24.8446 59.2584 24.6987C58.8869 24.4337 58.883 24.4336 53.4789 24.4009L48.0712 24.3683L44.5282 16.3993C42.5795 12.0164 40.8859 8.30424 40.7647 8.15014C40.4647 7.76881 39.6041 7.45276 39.1163 7.54499C38.1474 7.72803 37.396 8.68897 37.5379 9.56342C37.5727 9.77799 39.0287 13.1656 40.7732 17.0914C42.5178 21.0172 43.9453 24.262 43.9453 24.3021C43.9453 24.3422 37.6699 24.375 30 24.375C22.33 24.375 16.0546 24.3422 16.0546 24.3021C16.0546 24.262 17.4845 21.0119 19.232 17.0796C20.9795 13.1473 22.4329 9.73909 22.4619 9.506C22.543 8.85374 22.1004 8.09167 21.4497 7.76366C20.8173 7.44479 20.4832 7.43647 19.8495 7.72428ZM0.0351198 26.25C0.0351198 26.6045 0.0570339 26.7494 0.0838698 26.5723C0.110706 26.3951 0.110706 26.1049 0.0838698 25.9277C0.0570339 25.7505 0.0351198 25.8955 0.0351198 26.25ZM17.8208 32.0803C17.261 32.3657 16.9679 32.8154 16.9101 33.4776C16.8406 34.2729 18.7528 43.7362 19.0682 44.1587C19.4611 44.6849 19.8828 44.919 20.5323 44.971C21.0405 45.0119 21.2263 44.9713 21.5625 44.7458C22.0099 44.4457 22.4998 43.6012 22.5002 43.1294C22.5005 42.5391 20.6146 33.3281 20.3968 32.8564C20.0019 32.0014 18.728 31.6176 17.8208 32.0803ZM29.3554 32.041C28.9187 32.236 28.4143 32.7651 28.2496 33.201C28.0788 33.653 28.0786 43.2211 28.2493 43.674C28.5591 44.4957 29.5234 45.0935 30.3031 44.9473C30.7999 44.854 31.5035 44.256 31.7166 43.7458C31.919 43.2614 31.9495 33.7282 31.7503 33.201C31.4901 32.5123 30.6248 31.8684 29.9744 31.8796C29.8273 31.8821 29.5488 31.9548 29.3554 32.041ZM40.4824 32.0399C40.1025 32.2053 39.5478 32.7923 39.4486 33.1342C39.4157 33.2473 38.9586 35.501 38.4327 38.1425C37.4323 43.1666 37.3903 43.5832 37.8245 44.1695C38.2722 44.7743 38.7876 45.0257 39.4677 44.971C40.1171 44.919 40.5389 44.6849 40.9317 44.1587C41.2388 43.7474 43.1618 34.2632 43.0863 33.5315C42.958 32.2875 41.6431 31.5342 40.4824 32.0399Z" fill="#A8C82A"/>
</g>
<defs>
<clipPath id="clip0_58_1539">
<rect width="60" height="60" fill="white"/>
</clipPath>
</defs>
</svg>
