<svg width="60" height="60" viewBox="0 0 60 60" fill="none" xmlns="http://www.w3.org/2000/svg">
<path fill-rule="evenodd" clip-rule="evenodd" d="M13.0079 0.182788C10.5757 0.707085 8.85419 2.5024 8.27317 5.12072C8.04454 6.15138 8.0334 7.70201 8.24891 8.51154C9.12547 11.8035 12.7222 13.7109 18.0532 13.7109C22.6985 13.7109 27.0002 12.4974 28.3366 10.8101C30.0785 8.6108 28.6262 6.06947 23.9686 3.16603C19.8715 0.611929 15.9582 -0.453188 13.0079 0.182788ZM43.1837 0.194155C39.8846 0.787827 34.9414 3.4413 32.5552 5.89943C30.6392 7.87333 30.4982 9.67298 32.1397 11.2083C34.5555 13.468 42.4428 14.4504 46.9164 13.0488C50.3459 11.9743 52.2077 9.57232 51.9895 6.50388C51.8526 4.57955 51.1537 2.87341 50.0413 1.74841C48.5593 0.24982 46.0435 -0.320415 43.1837 0.194155ZM13.4013 4.79576C12.7312 5.20439 12.3548 7.08091 12.805 7.7681C13.1027 8.22232 14.3336 8.75459 15.5957 8.9749C17.1197 9.24103 20.5318 9.14494 22.2071 8.78869C22.8516 8.65169 23.4193 8.50005 23.4686 8.45166C23.59 8.33248 22.0019 7.20994 20.5665 6.40029C18.4066 5.18201 16.4791 4.57474 14.7657 4.57251C13.9886 4.57146 13.6886 4.62056 13.4013 4.79576ZM43.7198 4.69263C42.9691 4.84732 42.1486 5.1308 41.0154 5.6272C39.2847 6.38517 36.4319 8.2365 36.6533 8.45787C36.7091 8.51365 37.3047 8.67396 37.977 8.81423C39.6654 9.16638 43.9388 9.19837 45.1089 8.86755C46.0973 8.58818 46.91 8.16888 47.215 7.78099C47.6717 7.20044 47.431 5.49947 46.8095 4.91494C46.5343 4.6563 46.3965 4.62677 45.3718 4.60732C44.7484 4.59548 44.005 4.6338 43.7198 4.69263ZM2.72223 16.1218C2.04548 16.4591 1.46809 17.1478 1.28165 17.8402C1.20688 18.1179 1.17512 20.1315 1.19645 23.2335L1.23055 28.1836L1.55551 28.7365C2.00001 29.4924 2.75106 29.988 3.66618 30.129C4.10434 30.1965 8.93973 30.2281 15.8015 30.2085L27.2083 30.1758L27.4351 29.8957C27.6543 29.625 27.6608 29.3924 27.6298 22.9645C27.5991 16.6132 27.5877 16.3024 27.3745 16.0669L27.1513 15.8203H15.2393H3.32739L2.72223 16.1218ZM32.5868 16.1291C32.3476 16.4331 32.3438 16.5384 32.3438 23.0208C32.3438 28.1757 32.3763 29.6479 32.4935 29.8083C32.5757 29.9208 32.8527 30.0614 33.1087 30.1208C33.7309 30.2651 55.5157 30.2669 56.3956 30.1228C57.2527 29.9824 58.0156 29.4663 58.4446 28.7365L58.7696 28.1836L58.8037 23.2335C58.825 20.1315 58.7933 18.1179 58.7185 17.8402C58.5321 17.1478 57.9547 16.4591 57.2779 16.1218L56.6728 15.8203H44.7512H32.8296L32.5868 16.1291ZM6.23399 33.5035C5.46723 33.7684 4.97669 34.2159 4.61528 34.9804L4.33837 35.5664L4.33719 46.5684C4.33626 54.8669 4.37106 57.6889 4.47852 58.0528C4.66872 58.6965 5.6395 59.6673 6.28321 59.8575C6.64579 59.9646 9.31321 60 17.0285 60H27.2915L27.4739 59.7395C27.6363 59.5077 27.6563 58.0786 27.6563 46.7227V33.9663L27.3138 33.6238L26.9713 33.2812L16.9134 33.2851C7.47313 33.2886 6.81735 33.3021 6.23399 33.5035ZM32.6864 33.6238L32.3438 33.9663V46.7227C32.3438 58.0786 32.3639 59.5077 32.5263 59.7395L32.7086 60H42.9717C50.687 60 53.3544 59.9646 53.717 59.8575C54.3607 59.6673 55.3314 58.6965 55.5216 58.0528C55.6291 57.6889 55.6639 54.8669 55.663 46.5684L55.6618 35.5664L55.3886 34.9796C55.2383 34.6569 54.9232 34.2241 54.6883 34.0179C53.8306 33.2648 54.0902 33.2812 43.0363 33.2812H33.0289L32.6864 33.6238Z" fill="#A8C82A"/>
</svg>
