<svg width="60" height="60" viewBox="0 0 60 60" fill="none" xmlns="http://www.w3.org/2000/svg">
<g clip-path="url(#clip0_58_1535)">
<path fill-rule="evenodd" clip-rule="evenodd" d="M25.1084 0.184664C16.2345 1.25974 8.51149 6.76252 4.56251 14.8242C3.20524 17.595 2.41399 20.2938 2.05223 23.3858C0.510632 36.5651 9.12169 48.9282 22.0313 52.0701C25.6516 52.9513 29.5319 53.0545 33.1641 52.3663C35.4357 51.936 38.205 51.0453 38.2002 50.7467C38.1965 50.5059 36.7113 44.9925 36.6277 44.9089C36.5917 44.8729 36.0482 45.0336 35.4199 45.266C32.479 46.3537 29.8479 46.7481 26.9848 46.5302C21.8828 46.1419 17.5763 44.1899 14.0566 40.67C10.9185 37.5321 9.01434 33.786 8.30501 29.3554C8.1113 28.1451 8.11294 24.5719 8.3077 23.4375C9.28633 17.7379 12.1293 13.1515 16.6993 9.89939C19.1499 8.15552 22.0299 6.9963 25.3125 6.43263C26.4469 6.23787 30.0202 6.23623 31.2305 6.42994C35.661 7.13927 39.4072 9.04345 42.5451 12.1815C46.0328 15.6691 48.0169 20.0137 48.3964 24.9938C48.7335 29.4199 47.5058 33.9844 44.9664 37.7456L44.2073 38.8701L47.3787 39.7187L50.5502 40.5671L50.7536 40.2975C51.4954 39.3139 53.0615 35.8217 53.6109 33.9258C56.5826 23.6697 53.3048 12.9199 45.1172 6.07041C39.6426 1.49037 32.2588 -0.681586 25.1084 0.184664ZM25.6462 9.90642C17.5159 11.2778 11.5994 18.2243 11.6021 26.3952C11.6035 30.5095 13.0334 34.3056 15.7504 37.4075C16.6941 38.4849 17.4352 39.1476 18.7584 40.0969C23.3158 43.3667 29.6127 44.0086 34.8633 41.7384C35.5141 41.4571 35.6766 41.3369 35.6498 41.1573C35.631 41.0327 35.3327 39.8819 34.9866 38.6001C34.6407 37.3183 34.3659 36.2613 34.3761 36.2513C34.3863 36.2414 35.7529 36.5987 37.4131 37.0454L40.4317 37.8575L40.7669 37.4736C41.478 36.6594 41.7072 36.3566 42.2957 35.4534C46.7929 28.5513 45.5047 19.325 39.2826 13.8753C36.8483 11.7431 34.0518 10.4321 30.8202 9.90806C29.4892 9.6922 26.9209 9.69138 25.6462 9.90642ZM26.3672 15.3493V17.3393L26.045 17.4165C25.8678 17.459 25.3536 17.6674 24.9024 17.8796C22.7773 18.879 21.6993 20.6866 21.8205 23.047C21.9461 25.4927 23.2061 26.6402 27.0118 27.7749C29.2267 28.4354 30.2641 28.9342 30.5127 29.4585C30.7757 30.0124 30.7522 30.2754 30.4027 30.6907C29.5517 31.702 26.7182 31.4209 24.0194 30.0575C23.6671 29.8795 23.2518 29.6346 23.0964 29.5131L22.814 29.2922L21.9448 30.9442C21.4668 31.8527 21.1008 32.6619 21.1318 32.7423C21.2865 33.1455 24.5574 34.4713 25.8268 34.6453L26.3672 34.7194V36.93V39.1406H28.125H29.8829V36.9779V34.8153L30.3223 34.7416C32.2961 34.4108 33.7757 33.3956 34.5004 31.875C34.8462 31.1492 34.8633 31.0442 34.8633 29.6484C34.8633 28.2783 34.8413 28.1359 34.5224 27.4453C33.8522 25.9938 32.6219 25.2292 29.4816 24.3126C26.4875 23.4388 25.8985 23.0831 25.8985 22.1484C25.8985 21.2301 26.6473 20.7422 28.0566 20.7422C29.3003 20.7422 31.7115 21.5525 32.4795 22.2286C32.656 22.3838 32.7251 22.3042 33.2289 21.3658C33.5341 20.7972 33.9401 20.052 34.1311 19.7099C34.322 19.3677 34.4595 19.0733 34.4364 19.0558C33.8627 18.6195 31.952 17.8245 30.7325 17.5145L29.8829 17.2985V15.3289V13.3594H28.125H26.3672V15.3493ZM39.375 41.3794C39.375 41.5523 43.6045 57.3485 43.6688 57.4162C43.6966 57.4453 44.4822 56.7076 45.4147 55.7768L47.1101 54.0844L50.0693 57.0419L53.0286 59.9995L55.5766 57.4515L58.1246 54.9035L55.167 51.9443L52.2094 48.9851L53.9018 47.2896C54.8327 46.3571 55.5704 45.5715 55.5413 45.5437C55.4736 45.4794 39.6774 41.25 39.5044 41.25C39.4333 41.25 39.375 41.3082 39.375 41.3794Z" fill="#A8C82A"/>
</g>
<defs>
<clipPath id="clip0_58_1535">
<rect width="60" height="60" fill="white"/>
</clipPath>
</defs>
</svg>
