<svg width="18" height="18" viewBox="0 0 18 18" fill="none" xmlns="http://www.w3.org/2000/svg">
<g clip-path="url(#clip0_2_593)">
<path d="M8.09086 15.8052C7.58876 16.3072 7.58876 17.1213 8.09086 17.6234C8.59297 18.1255 9.40703 18.1255 9.90914 17.6234L17.6234 9.90914C18.1255 9.40703 18.1255 8.59297 17.6234 8.09086L9.90914 0.376577C9.40703 -0.125526 8.59297 -0.125526 8.09086 0.376577C7.58876 0.878679 7.58876 1.69275 8.09086 2.19486L13.6103 7.71429H1.28571C0.575633 7.71429 3.10384e-08 8.28993 0 9C-3.10397e-08 9.71009 0.575633 10.2857 1.28571 10.2857H13.6103L8.09086 15.8052Z" fill="black"/>
</g>
<defs>
<clipPath id="clip0_2_593">
<rect width="18" height="18" fill="white"/>
</clipPath>
</defs>
</svg>
