<svg width="22" height="22" viewBox="0 0 22 22" fill="none" xmlns="http://www.w3.org/2000/svg">
<path d="M2.50073 2.49981C3.55591 2.49981 4.31813 2.69041 4.80151 3.17363C5.08619 3.45831 5.33659 3.83317 5.52612 4.25078C5.66441 4.2183 5.81071 4.20163 5.96167 4.20195L17.8357 5.05059C18.8995 5.06957 19.9402 5.95132 19.4265 7.09746C19.3265 7.32067 18.8744 8.22967 18.156 9.65996C17.8627 10.2439 17.5615 10.8416 17.2605 11.4383C17.09 11.7762 17.0898 11.7762 16.9695 12.0145C16.9144 12.1235 16.8936 12.1666 16.8806 12.1922C16.6363 12.8204 16.1198 13.3051 15.4753 13.5096L15.3503 13.5496H6.77124L5.09253 13.5486C4.60967 13.5728 4.22384 13.9594 4.20093 14.4002L4.19897 15.199C4.2282 15.6853 4.61716 16.0733 5.05054 16.0994H5.19604C5.54618 15.1093 6.49038 14.4004 7.60034 14.4002C8.7105 14.4002 9.65545 15.1092 10.0056 16.0994H11.9958C12.346 15.1092 13.291 14.4002 14.4011 14.4002C15.8093 14.4004 16.9509 15.5418 16.9509 16.95C16.9508 18.3581 15.8092 19.4996 14.4011 19.4998C13.2908 19.4998 12.3459 18.79 11.9958 17.7996H10.0056C9.65555 18.79 8.71063 19.4998 7.60034 19.4998C6.48982 19.4996 5.54478 18.7895 5.19507 17.7986H5.00269C3.65927 17.7223 2.58303 16.6471 2.50073 15.2498L2.50171 14.3572C2.56904 13.0047 3.64848 11.9229 5.04175 11.8504L4.20972 6.02031L4.20093 5.9002C4.20093 5.3503 3.92064 4.69706 3.59937 4.37578C3.51569 4.29254 3.14491 4.2 2.50073 4.2V2.49981ZM7.60034 16.0994C7.1311 16.0997 6.75073 16.4807 6.75073 16.95C6.75084 17.4192 7.13117 17.7994 7.60034 17.7996C8.06972 17.7996 8.45082 17.4194 8.45093 16.95C8.45093 16.4806 8.06978 16.0994 7.60034 16.0994ZM14.4011 16.0994C13.9317 16.0994 13.5505 16.4806 13.5505 16.95C13.5506 17.4194 13.9317 17.7996 14.4011 17.7996C14.8703 17.7994 15.2506 17.4192 15.2507 16.95C15.2507 16.4807 14.8704 16.0996 14.4011 16.0994ZM6.74292 11.7313C6.75121 11.7886 6.79297 11.8343 6.84741 11.8494H15.0554C15.1687 11.7876 15.2572 11.6859 15.3015 11.5623L15.3425 11.4666C15.3625 11.4271 15.3627 11.4263 15.4529 11.2479C15.5729 11.0102 15.5728 11.0099 15.7429 10.6727C16.0435 10.0769 16.3443 9.48 16.6248 8.92168L16.6375 8.89727C17.1287 7.91919 17.5042 7.16704 17.7107 6.7459L5.90991 5.9002L6.74292 11.7313Z" fill="white"/>
</svg>
