<svg width="24" height="24" viewBox="0 0 24 24" fill="none" xmlns="http://www.w3.org/2000/svg">
<path d="M2 2C3.24155 2 4.13836 2.2243 4.70703 2.79297C5.04208 3.12802 5.33655 3.56901 5.55957 4.06055C5.72226 4.02233 5.89369 4.00255 6.07129 4.00293L20.041 5C21.2926 5.02227 22.5166 6.06068 21.9121 7.40918C21.7942 7.67222 21.2629 8.74164 20.418 10.4238C20.0729 11.1108 19.7184 11.8137 19.3643 12.5156C19.1636 12.9133 19.1641 12.9138 19.0225 13.1943C18.9578 13.3223 18.9322 13.3722 18.917 13.4023C18.6296 14.1414 18.0228 14.7125 17.2646 14.9531L17.1172 15H7.03809L7.02344 14.999H5.0498C4.48156 15.0272 4.02697 15.4813 4 16L3.99805 16.9404C4.03252 17.5126 4.4901 17.9694 5 18H5.1709C5.58275 16.8348 6.6938 16 8 16C9.3062 16 10.4172 16.8348 10.8291 18H13.1709C13.5828 16.8348 14.6938 16 16 16C17.6569 16 19 17.3431 19 19C19 20.6569 17.6569 22 16 22C14.6938 22 13.5828 21.1652 13.1709 20H10.8291C10.4172 21.1652 9.3062 22 8 22C6.69337 22 5.58144 21.1648 5.16992 19.999L4.94336 19.998C3.36287 19.9082 2.09682 18.6439 2 17L2.00098 15.9502C2.08006 14.3587 3.35075 13.086 4.99023 13.001L4.00977 6.1416L4 6C4 5.35306 3.67094 4.585 3.29297 4.20703C3.19497 4.10904 2.75845 4 2 4V2ZM8 18C7.44772 18 7 18.4477 7 19C7 19.5523 7.44772 20 8 20C8.55228 20 9 19.5523 9 19C9 18.4477 8.55228 18 8 18ZM16 18C15.4477 18 15 18.4477 15 19C15 19.5523 15.4477 20 16 20C16.5523 20 17 19.5523 17 19C17 18.4477 16.5523 18 16 18ZM6.99023 12.8604C6.9999 12.9279 7.04919 12.9822 7.11328 13H16.7695C16.9029 12.9274 17.0073 12.8076 17.0596 12.6621L17.1084 12.5488C17.1318 12.5025 17.1313 12.5017 17.2373 12.292C17.3786 12.0121 17.3789 12.012 17.5791 11.6152C17.9327 10.9142 18.2872 10.2116 18.6172 9.55469L18.6309 9.52637C19.2089 8.37565 19.6506 7.49057 19.8936 6.99512L6.01074 6.00098L6.99023 12.8604Z" fill="#BE0A7C"/>
</svg>
