<svg width="14" height="10" viewBox="0 0 14 10" fill="none" xmlns="http://www.w3.org/2000/svg">
<path fill-rule="evenodd" clip-rule="evenodd" d="M12.0028 0.0723432C11.8447 0.141062 11.3172 0.613837 8.33494 3.35959L4.85182 6.56659L3.50016 5.32687C1.95202 3.90693 1.99436 3.93603 1.51222 3.96044C1.14428 3.97905 1.01851 4.04508 0.560712 4.4599C0.0788454 4.89658 -0.000458422 5.03062 0.000213075 5.4074C0.00101887 5.85045 -0.0814745 5.75876 2.26104 7.92108C3.39947 8.97194 4.39006 9.86958 4.46235 9.91585C4.57751 9.98961 4.62562 10 4.85131 10C5.07717 10 5.12505 9.98964 5.24028 9.91572C5.31256 9.8694 7.27021 8.08107 9.59057 5.94166C13.0353 2.76565 13.8269 2.02066 13.9045 1.88177C13.9867 1.73462 13.9996 1.6762 14 1.44879C14.0007 1.07201 13.9214 0.937979 13.4395 0.501295C12.9738 0.0792708 12.8568 0.0190567 12.4728 0.00359339C12.2204 -0.00655054 12.1661 0.00136665 12.0028 0.0723432Z" fill="white"/>
</svg>
