<svg width="22" height="22" viewBox="0 0 22 22" fill="none" xmlns="http://www.w3.org/2000/svg">
<path d="M14.8716 2.49981C18.0203 2.5131 20.351 5.16876 20.3511 8.55156C20.3511 11.1338 18.9108 13.6279 16.229 16.0398C14.8215 17.3057 13.0249 18.5588 11.7378 19.2254L11.0005 19.6072L10.2642 19.2254C8.97704 18.5588 7.1795 17.3058 5.77197 16.0398C3.09048 13.628 1.65088 11.1336 1.65088 8.55156C1.65094 5.13242 3.95988 2.49983 7.13721 2.49981C8.32358 2.49981 9.15755 2.66049 10.0845 3.11895C10.4071 3.27855 10.7107 3.46782 10.9927 3.68633C11.2859 3.4549 11.6015 3.25634 11.938 3.0916C12.8473 2.64653 13.6411 2.49979 14.8716 2.49981ZM14.8677 4.2C13.8799 4.19999 13.3344 4.30013 12.6851 4.61797C12.2858 4.81343 11.9316 5.07762 11.6226 5.41289L11.0024 6.08574L10.3774 5.41875C10.0751 5.09626 9.72571 4.83782 9.33057 4.64238C8.66167 4.31157 8.08039 4.20001 7.13721 4.2C4.95198 4.2 3.35113 6.0253 3.35107 8.55156C3.35107 10.5745 4.55228 12.6567 6.90869 14.7762C8.19338 15.9316 9.84539 17.0863 11.0005 17.6922C12.1556 17.0863 13.8075 15.9317 15.0923 14.7762C17.4489 12.6567 18.6509 10.5746 18.6509 8.55156C18.6508 6.06042 17.0258 4.20904 14.8677 4.2Z" fill="white"/>
</svg>
