<svg width="24" height="24" viewBox="0 0 24 24" fill="none" xmlns="http://www.w3.org/2000/svg">
<path d="M16.5537 2C20.2582 2.01561 23 5.14026 23 9.12012C22.9999 12.1578 21.3062 15.0922 18.1514 17.9297C16.4953 19.4191 14.3805 20.8936 12.8662 21.6777L12 22.126L11.1338 21.6777C9.61951 20.8936 7.50469 19.4191 5.84863 17.9297C2.69385 15.0922 1.00009 12.1578 1 9.12012C1 5.09767 3.71622 2.00025 7.4541 2C8.84984 2 9.83138 2.18916 10.9219 2.72852C11.3015 2.91628 11.6585 3.13845 11.9902 3.39551C12.3352 3.12328 12.7067 2.89008 13.1025 2.69629C14.1723 2.17268 15.106 1.99998 16.5537 2ZM16.5488 4C15.3869 4.00001 14.7453 4.11828 13.9814 4.49219C13.5117 4.72218 13.095 5.03322 12.7314 5.42773L12.002 6.21875L11.2666 5.43359C10.911 5.05422 10.5 4.75042 10.0352 4.52051C9.2482 4.1313 8.56378 4 7.4541 4C4.88342 4.00025 3 6.14813 3 9.12012C3.0001 11.5 4.41423 13.949 7.18652 16.4424C8.69807 17.8019 10.641 19.1613 12 19.874C13.359 19.1613 15.3019 17.8019 16.8135 16.4424C19.5858 13.949 20.9999 11.5 21 9.12012C21 6.18921 19.088 4.01052 16.5488 4Z" fill="#BE0A7C"/>
</svg>
