<svg width="24" height="24" viewBox="0 0 24 24" fill="none" xmlns="http://www.w3.org/2000/svg">
<path fill-rule="evenodd" clip-rule="evenodd" d="M12 9.50003C11.4477 9.50003 11 9.9477 11 10.5C11 11.0523 11.4477 11.5 12 11.5C12.5523 11.5 13 11.0523 13 10.5C13 9.9477 12.5523 9.50003 12 9.50003ZM12 7.5C10.3432 7.5 9 8.84317 9 10.5C9 12.1568 10.3432 13.5 12 13.5C13.6568 13.5 15 12.1568 15 10.5C15 8.84317 13.6568 7.5 12 7.5Z" fill="#BE0A7C"/>
<path fill-rule="evenodd" clip-rule="evenodd" d="M17 13.5857V4.99988H7V13.5857L12 18.5856L17 13.5857ZM18.7071 14.707L12.7071 20.707H11.2929L5.29289 14.707L5 13.9999V3.99988L6 2.99988H18L19 3.99988V13.9999L18.7071 14.707Z" fill="#BE0A7C"/>
</svg>
