<svg width="24" height="24" viewBox="0 0 24 24" fill="none" xmlns="http://www.w3.org/2000/svg">
<path d="M22.707 7.29302C22.5195 7.10555 22.2652 7.00023 22 7.00023C21.7348 7.00023 21.4805 7.10555 21.293 7.29302L12 16.586L2.707 7.29302C2.61475 7.19751 2.50441 7.12133 2.3824 7.06892C2.2604 7.01651 2.12918 6.98892 1.9964 6.98777C1.86362 6.98662 1.73194 7.01192 1.60905 7.0622C1.48615 7.11248 1.3745 7.18673 1.28061 7.28062C1.18671 7.37452 1.11246 7.48617 1.06218 7.60907C1.0119 7.73196 0.986595 7.86364 0.987749 7.99642C0.988903 8.1292 1.01649 8.26042 1.0689 8.38242C1.12131 8.50443 1.19749 8.61477 1.293 8.70702L11.293 18.707C11.4805 18.8945 11.7348 18.9998 12 18.9998C12.2652 18.9998 12.5195 18.8945 12.707 18.707L22.707 8.70702C22.8945 8.51949 22.9998 8.26518 22.9998 8.00002C22.9998 7.73486 22.8945 7.48055 22.707 7.29302Z" fill="#D9D9D9"/>
</svg>
