<svg width="13" height="13" viewBox="0 0 13 13" fill="none" xmlns="http://www.w3.org/2000/svg">
<path d="M3.20898 7.67578H7.80273V6.70508H3.20898V7.67578ZM3.20898 5.83008H10.209V4.85938H3.20898V5.83008ZM3.20898 3.98438H10.209V3.01367H3.20898V3.98438ZM0.775391 12.4336V1.67383C0.775391 1.38216 0.884766 1.1224 1.10352 0.894531C1.32227 0.675781 1.58203 0.566406 1.88281 0.566406H11.5352C11.8268 0.566406 12.0866 0.675781 12.3145 0.894531C12.5332 1.1224 12.6426 1.38216 12.6426 1.67383V8.98828C12.6426 9.28906 12.5332 9.54883 12.3145 9.76758C12.0866 9.98633 11.8268 10.0957 11.5352 10.0957H3.11328L0.775391 12.4336ZM1.88281 9.84961L2.73047 8.98828H11.5352V1.67383H1.88281V9.84961Z" fill="#8F8F8F"/>
</svg>
