<svg width="21" height="22" viewBox="0 0 21 22" fill="none" xmlns="http://www.w3.org/2000/svg">
<path d="M10.5005 1.6498C15.6642 1.6498 19.8509 5.83573 19.8511 10.9994C19.8511 16.1633 15.6644 20.35 10.5005 20.35C5.33681 20.3498 1.15088 16.1631 1.15088 10.9994C1.15109 5.83586 5.33694 1.65001 10.5005 1.6498ZM10.5005 15.2494C7.46779 15.2495 5.68192 15.834 5.43213 16.7279C6.78173 17.9232 8.55595 18.6497 10.5005 18.6498C12.4452 18.6498 14.219 17.9223 15.5688 16.727C15.3179 15.8335 13.5322 15.2494 10.5005 15.2494ZM10.5005 3.35C6.27578 3.35016 2.85129 6.77471 2.85107 10.9994C2.85107 12.6177 3.35496 14.1178 4.2124 15.3539C5.16975 14.0916 7.41708 13.5502 10.5005 13.5502C13.5838 13.5502 15.8311 14.0918 16.7886 15.3539C17.6463 14.1177 18.1509 12.6179 18.1509 10.9994C18.1507 6.77461 14.7253 3.35 10.5005 3.35ZM10.5005 5.8998C12.5526 5.8998 13.9009 7.53346 13.9009 9.47012C13.9008 12.2576 12.3858 13.5502 10.5005 13.5502C8.59745 13.5501 7.10121 12.213 7.10107 9.30019C7.10107 7.39268 8.44289 5.89994 10.5005 5.8998ZM10.5005 7.6C9.42435 7.60012 8.80127 8.29374 8.80127 9.30019C8.80136 11.2286 9.49619 11.8499 10.5005 11.85C11.5015 11.85 12.2006 11.2535 12.2007 9.47012C12.2007 8.40797 11.5338 7.6 10.5005 7.6Z" fill="white"/>
</svg>
